<svg width="103.2" height="85.603" viewBox="0 0 103.2 85.603"><g id="svgGroup" stroke-linecap="round" fill-rule="evenodd" font-size="9pt" stroke="#000" stroke-width="0.25mm" fill="#000" style="stroke:#000;stroke-width:0.25mm;fill:#000"><path d="M 38.2 80 L 35.4 82.6 L 33.5 83.7 A 4.502 4.502 0 0 1 30.874 84.598 A 5.575 5.575 0 0 1 30.7 84.6 Q 30.31 84.73 30.004 84.776 A 2.075 2.075 0 0 1 29.7 84.8 A 18.812 18.812 0 0 1 23.759 83.551 A 17.631 17.631 0 0 1 22.5 83 Q 19.9 81.6 17.6 79.75 Q 15.415 77.992 12.326 75.196 A 217.564 217.564 0 0 1 12 74.9 L 1.3 65.3 A 3.948 3.948 0 0 1 0.092 63.052 A 5.764 5.764 0 0 1 0 62 A 8.584 8.584 0 0 1 0.389 59.537 Q 0.713 58.454 1.309 57.28 A 20.636 20.636 0 0 1 2.4 55.4 A 18.987 18.987 0 0 1 4.084 53.186 Q 5.852 51.207 7.8 50.4 A 3.853 3.853 0 0 1 8.7 50.077 A 3.267 3.267 0 0 1 9.4 50 A 3.454 3.454 0 0 1 10.325 50.12 A 2.931 2.931 0 0 1 11 50.4 L 18.8 57.8 L 21.2 60 Q 23.783 62.379 25.881 64.111 A 63.049 63.049 0 0 0 27.75 65.6 Q 30.5 67.7 33.7 68.9 A 0.746 0.746 0 0 0 33.845 68.953 Q 34.025 69 34.3 69 Q 34.795 67.846 35.017 67.1 A 6.914 6.914 0 0 0 35.1 66.8 Q 36.2 63.2 37.2 55.8 A 99.273 99.273 0 0 0 37.573 51.259 A 72.141 72.141 0 0 0 37.7 47.1 A 86.318 86.318 0 0 0 37.694 46.025 Q 37.675 44.525 37.6 43.7 L 37.4 41.6 Q 36.8 35.4 36.2 32.2 A 47.868 47.868 0 0 0 34.044 24.856 A 39.26 39.26 0 0 0 32 20.4 A 2.682 2.682 0 0 1 31.741 19.749 Q 31.662 19.447 31.627 19.09 A 6.111 6.111 0 0 1 31.6 18.5 L 30.2 18.7 Q 23.463 20.385 19.304 21.483 A 298.733 298.733 0 0 0 17 22.1 Q 16.7 22.2 16.35 22.3 A 2.368 2.368 0 0 1 16.028 22.367 Q 15.864 22.39 15.676 22.397 A 4.606 4.606 0 0 1 15.5 22.4 A 2.055 2.055 0 0 1 13.842 21.615 A 3.16 3.16 0 0 1 13.5 21.1 A 5.669 5.669 0 0 1 13.2 19.328 A 5.403 5.403 0 0 1 13.2 19.3 A 3.711 3.711 0 0 1 13.216 18.979 Q 13.244 18.663 13.32 18.224 A 17.7 17.7 0 0 1 13.4 17.8 Q 14 14.6 16.6 11.8 Q 18 10.3 19.8 9.5 Q 24.7 8.122 27.724 7.213 A 162.857 162.857 0 0 0 29.4 6.7 A 71.712 71.712 0 0 1 30.291 6.423 Q 31.753 5.978 32.3 5.9 Q 35.9 4.8 38.1 4.3 Q 48.2 2 58.2 0.1 L 58.6 0 A 1.798 1.798 0 0 1 59.437 0.191 Q 59.934 0.447 60.25 1.05 A 5.862 5.862 0 0 1 60.828 2.687 A 5.396 5.396 0 0 1 60.9 3.2 A 10.013 10.013 0 0 1 60.395 6.411 A 9.234 9.234 0 0 1 59.9 7.6 Q 58.7 10.5 56.55 12.7 A 9.093 9.093 0 0 1 54.507 14.293 A 7.331 7.331 0 0 1 51.7 15.2 Q 47.096 15.845 45.035 16.15 A 196.393 196.393 0 0 0 44.7 16.2 A 68.52 68.52 0 0 1 47.028 24.034 A 57.601 57.601 0 0 1 47.8 28 A 268.612 268.612 0 0 1 48.272 30.711 Q 49.022 35.16 49.1 36.8 Q 49.3 39.6 49.3 41.1 Q 49.3 42.5 49.1 45.5 A 140.215 140.215 0 0 1 48.608 51.989 Q 47.938 58.632 46.7 63.1 Q 45.2 68.5 43.6 71.6 Q 42.542 73.868 41.598 75.536 A 32.242 32.242 0 0 1 41 76.55 Q 39.8 78.5 38.2 80 Z M 73.6 78.8 L 71.6 80.7 Q 70.109 82.291 69.013 83.288 A 25.911 25.911 0 0 1 69 83.3 Q 67.9 84.3 66.6 84.9 Q 65.423 85.449 64.431 85.568 A 4.484 4.484 0 0 1 63.9 85.6 A 2.164 2.164 0 0 1 61.834 84.344 Q 61.354 83.409 61.306 81.778 A 12.656 12.656 0 0 1 61.3 81.4 A 25.178 25.178 0 0 1 61.449 78.729 A 31.433 31.433 0 0 1 61.7 76.9 A 281.803 281.803 0 0 1 61.84 76.071 Q 62.081 74.647 62.175 74.212 A 3.526 3.526 0 0 1 62.2 74.1 A 6645.33 6645.33 0 0 1 64.294 58.344 Q 67.275 36.125 69.3 22.4 A 83.435 83.435 0 0 1 70.406 16.688 Q 71.084 13.766 71.931 11.227 A 49.293 49.293 0 0 1 72.25 10.3 Q 74.1 5.1 78.4 3.9 A 27.677 27.677 0 0 1 78.804 3.822 Q 79.34 3.724 79.595 3.705 A 1.451 1.451 0 0 1 79.7 3.7 A 3.475 3.475 0 0 1 80.602 3.81 A 2.263 2.263 0 0 1 82 4.85 Q 82.7 6 82.7 7.9 Q 82.7 9.7 82.1 11.6 A 15.146 15.146 0 0 1 81.643 12.863 Q 81.401 13.444 81.133 13.921 A 6.902 6.902 0 0 1 80.7 14.6 L 80.7 15.9 Q 80.7 17.189 80.442 18.774 A 26.127 26.127 0 0 1 80.35 19.3 Q 80 21.2 79.9 22 L 78.1 35 L 74 64.7 A 84.518 84.518 0 0 1 77.317 61.867 Q 78.999 60.508 80.577 59.399 A 49.223 49.223 0 0 1 81.3 58.9 Q 84.572 56.687 87.752 56.604 A 9.489 9.489 0 0 1 88 56.6 Q 92.5 56.6 94.7 60.4 Q 96.41 63.354 97.758 67.577 A 59.71 59.71 0 0 1 98.5 70.1 A 7.967 7.967 0 0 1 99.283 69.363 Q 100.345 68.5 101.3 68.5 A 1.602 1.602 0 0 1 102.045 68.67 Q 102.364 68.835 102.604 69.159 A 2.181 2.181 0 0 1 102.7 69.3 Q 103.172 70.055 103.198 71.166 A 5.6 5.6 0 0 1 103.2 71.3 A 5.705 5.705 0 0 1 102.872 73.267 A 5.06 5.06 0 0 1 101.8 75 Q 101.332 75.562 99.682 77.874 A 317.456 317.456 0 0 0 99.45 78.2 A 26.508 26.508 0 0 1 97.02 81.157 A 22.26 22.26 0 0 1 95.45 82.65 A 10.98 10.98 0 0 1 94.268 83.545 Q 93.623 83.963 93.013 84.198 A 4.2 4.2 0 0 1 91.5 84.5 A 3.491 3.491 0 0 1 89.755 84.025 A 4.422 4.422 0 0 1 89.4 83.8 A 2.759 2.759 0 0 1 88.595 82.953 Q 88.291 82.467 88.1 81.8 Q 87.718 80.464 87.337 78.217 A 70.034 70.034 0 0 1 87.3 78 A 33.2 33.2 0 0 0 86.935 76.122 Q 86.433 73.908 85.75 72.65 A 2.789 2.789 0 0 0 84.994 71.743 Q 84.161 71.109 82.84 71.252 A 5.321 5.321 0 0 0 82.5 71.3 A 4.665 4.665 0 0 0 81.383 71.69 Q 80.393 72.171 79.257 73.161 A 16.242 16.242 0 0 0 79.1 73.3 A 59.825 59.825 0 0 0 77.089 75.181 A 47.703 47.703 0 0 0 75.7 76.6 A 278.554 278.554 0 0 1 75.026 77.317 Q 74.282 78.104 73.842 78.556 A 30.109 30.109 0 0 1 73.6 78.8 Z" vector-effect="non-scaling-stroke"/></g></svg>