<svg width="84.961" height="91.504" viewBox="0 0 84.961 91.504" xmlns="http://www.w3.org/2000/svg"><g id="svgGroup" stroke-linecap="round" fill-rule="evenodd" font-size="9pt" stroke="#000" stroke-width="0.25mm" fill="#000" style="stroke:#000;stroke-width:0.25mm;fill:#000"><path d="M 71.875 71.924 L 64.355 71.924 A 934.032 934.032 0 0 0 61.047 71.93 A 1180.585 1180.585 0 0 0 57.471 71.948 A 502.834 502.834 0 0 0 53.845 71.985 A 435.157 435.157 0 0 0 50.391 72.046 Q 47.245 72.114 44.717 72.268 A 102.238 102.238 0 0 0 44.36 72.29 A 66.176 66.176 0 0 0 43.126 72.38 Q 41.979 72.475 41.222 72.589 A 10.306 10.306 0 0 0 40.576 72.705 Q 41.943 71.533 43.066 70.166 A 11.131 11.131 0 0 0 44.17 68.534 A 15.064 15.064 0 0 0 44.995 66.797 A 17.508 17.508 0 0 0 45.63 64.891 Q 45.993 63.567 46.24 61.987 A 32.965 32.965 0 0 0 46.525 59.517 Q 46.68 57.573 46.68 55.225 L 46.68 5.908 Q 45.166 6.055 43.018 6.299 A 140.408 140.408 0 0 0 41.026 6.54 Q 40.011 6.671 38.892 6.827 A 234.405 234.405 0 0 0 38.135 6.934 Q 40.154 5.289 41.872 4.245 A 19.809 19.809 0 0 1 42.896 3.662 A 41.083 41.083 0 0 1 44.343 2.931 Q 45.03 2.602 45.637 2.349 A 18.026 18.026 0 0 1 46.533 2.002 Q 48.291 1.416 49.658 1.318 Q 50.94 1.355 52.428 1.309 A 62.46 62.46 0 0 0 53.442 1.27 A 99.727 99.727 0 0 0 56.473 1.082 A 89.688 89.688 0 0 0 57.446 1.001 A 53.003 53.003 0 0 0 59.296 0.806 A 41.079 41.079 0 0 0 60.986 0.562 Q 62.598 0.293 63.379 0 Q 61.407 1.301 59.777 2.259 A 55.241 55.241 0 0 1 59.253 2.563 Q 57.422 3.613 55.762 4.297 A 6109.788 6109.788 0 0 0 55.549 12.175 Q 55.437 16.408 55.347 20.117 A 8379.678 8379.678 0 0 0 55.206 25.923 Q 55.143 28.576 55.089 30.946 A 4793.031 4793.031 0 0 0 55.054 32.495 A 3173.241 3173.241 0 0 0 54.969 36.336 Q 54.937 37.85 54.909 39.222 A 1700.228 1700.228 0 0 0 54.858 41.821 A 8595.564 8595.564 0 0 0 54.807 44.608 Q 54.787 45.702 54.769 46.684 A 4357.797 4357.797 0 0 0 54.736 48.535 Q 54.59 55.029 54.639 57.422 Q 54.59 59.229 54.248 60.889 A 16.027 16.027 0 0 1 53.81 62.536 A 20.615 20.615 0 0 1 53.32 63.892 A 8.199 8.199 0 0 1 52.125 65.972 A 7.502 7.502 0 0 1 51.563 66.602 A 182.779 182.779 0 0 0 54.401 66.675 A 149.501 149.501 0 0 0 57.056 66.699 L 61.963 66.699 A 400.428 400.428 0 0 0 65.161 66.687 Q 69.435 66.653 72.559 66.523 A 131.134 131.134 0 0 0 72.998 66.504 A 212.963 212.963 0 0 0 75.061 66.402 Q 77.419 66.273 79.136 66.117 A 61.429 61.429 0 0 0 79.932 66.04 Q 82.315 65.793 83.414 65.587 A 11.009 11.009 0 0 0 83.594 65.552 A 33.53 33.53 0 0 0 83.966 65.474 Q 84.679 65.319 84.852 65.24 A 0.393 0.393 0 0 0 84.863 65.234 A 192.491 192.491 0 0 0 83.624 66.083 Q 81.852 67.307 80.571 68.258 A 35.507 35.507 0 0 0 80.566 68.262 Q 78.857 69.531 77.515 70.337 A 12.961 12.961 0 0 1 76.019 71.112 A 10.39 10.39 0 0 1 74.878 71.533 A 8.727 8.727 0 0 1 73.486 71.825 Q 72.827 71.912 72.088 71.922 A 14.614 14.614 0 0 1 71.875 71.924 Z M 16.162 55.225 L 16.162 5.908 Q 14.648 6.055 12.476 6.299 Q 10.447 6.527 7.929 6.882 A 227.79 227.79 0 0 0 7.568 6.934 Q 9.587 5.289 11.305 4.245 A 19.809 19.809 0 0 1 12.329 3.662 A 41.083 41.083 0 0 1 13.777 2.931 Q 14.463 2.602 15.07 2.349 A 18.026 18.026 0 0 1 15.967 2.002 Q 17.725 1.416 19.092 1.318 Q 20.374 1.355 21.861 1.309 A 62.46 62.46 0 0 0 22.876 1.27 A 99.727 99.727 0 0 0 25.906 1.082 A 89.688 89.688 0 0 0 26.88 1.001 A 53.003 53.003 0 0 0 28.729 0.806 A 41.079 41.079 0 0 0 30.42 0.562 A 29.169 29.169 0 0 0 31.177 0.426 Q 31.99 0.268 32.545 0.102 A 6.759 6.759 0 0 0 32.861 0 A 70.155 70.155 0 0 1 30.836 1.317 Q 29.872 1.92 28.987 2.422 A 41.994 41.994 0 0 1 28.735 2.563 A 38.251 38.251 0 0 1 26.91 3.522 A 29.121 29.121 0 0 1 25.195 4.297 A 6109.788 6109.788 0 0 0 24.983 12.175 Q 24.871 16.408 24.78 20.117 A 8379.678 8379.678 0 0 0 24.64 25.923 Q 24.577 28.576 24.523 30.946 A 4793.031 4793.031 0 0 0 24.487 32.495 A 3173.241 3173.241 0 0 0 24.403 36.336 Q 24.37 37.85 24.343 39.222 A 1700.228 1700.228 0 0 0 24.292 41.821 A 8595.564 8595.564 0 0 0 24.24 44.608 Q 24.22 45.702 24.203 46.684 A 4357.797 4357.797 0 0 0 24.17 48.535 Q 24.023 55.029 24.072 57.422 Q 24.025 58.95 23.72 61.388 A 85.992 85.992 0 0 1 23.706 61.499 Q 23.41 63.847 22.581 66.684 A 47.837 47.837 0 0 1 22.461 67.09 A 38.819 38.819 0 0 1 21.185 70.651 A 49.524 49.524 0 0 1 19.873 73.56 A 33.134 33.134 0 0 1 17.117 78.168 A 39.302 39.302 0 0 1 15.552 80.225 A 35.456 35.456 0 0 1 11.768 84.18 A 43.574 43.574 0 0 1 9.058 86.426 A 36.052 36.052 0 0 1 4.015 89.629 A 45.896 45.896 0 0 1 0 91.504 A 26.136 26.136 0 0 0 4.493 88.499 A 22.757 22.757 0 0 0 6.274 86.841 Q 8.887 84.131 10.669 80.981 A 35.131 35.131 0 0 0 13.55 74.414 A 47.683 47.683 0 0 0 15.21 67.603 A 65.985 65.985 0 0 0 15.881 62.233 A 58.695 58.695 0 0 0 15.967 61.035 A 109.391 109.391 0 0 0 16.113 57.996 A 82.627 82.627 0 0 0 16.162 55.225 Z M 84.961 65.137 L 84.863 65.234 L 84.863 65.186 A 0.22 0.22 0 0 1 84.893 65.16 Q 84.911 65.148 84.929 65.142 A 0.102 0.102 0 0 1 84.961 65.137 Z" vector-effect="non-scaling-stroke"/></g></svg>